<svg xmlns="http://www.w3.org/2000/svg" fill="none" viewBox="0 0 22 22"><path stroke="#000" stroke-width="2" d="M1 11c0-3.771 0-5.657 1.172-6.828S5.229 3 9 3h4c3.771 0 5.657 0 6.828 1.172S21 7.229 21 11v2c0 3.771 0 5.657-1.172 6.828S16.771 21 13 21H9c-3.771 0-5.657 0-6.828-1.172S1 16.771 1 13z"/><path stroke="#000" stroke-linecap="round" stroke-width="2" d="M6 3V1.5M16 3V1.5"/><path stroke="#000" stroke-width="2" d="M15 17a2 2 0 1 0 0-4 2 2 0 0 0 0 4Z"/><path stroke="#000" stroke-linecap="round" stroke-width="2" d="M1.5 8h19"/></svg>